<svg xmlns="http://www.w3.org/2000/svg" width="70" height="52" viewBox="0 0 70 52"><g><g><path fill="#469bdb" d="M10.5 52c-5.523 0-10-4.477-10-10V10c0-5.523 4.477-10 10-10h49c5.523 0 10 4.477 10 10v32c0 5.523-4.477 10-10 10z"/></g><g><path fill="#fff" d="M37.643 22.95h-1.945a.564.564 0 0 0-.465.246l-2.681 3.95-1.137-3.796a.563.563 0 0 0-.539-.4h-1.91a.337.337 0 0 0-.32.445l2.141 6.286-2.013 2.842a.337.337 0 0 0 .275.532h1.942a.56.56 0 0 0 .461-.241l6.467-9.335a.337.337 0 0 0-.276-.53zM24.64 26.716c-.186 1.105-1.064 1.847-2.183 1.847-.562 0-1.01-.18-1.299-.521-.286-.34-.395-.822-.304-1.36.175-1.096 1.067-1.862 2.169-1.862.55 0 .996.182 1.29.527.295.348.412.834.327 1.369zm2.698-3.766h-1.935a.337.337 0 0 0-.333.284l-.086.541-.135-.196c-.419-.608-1.353-.811-2.285-.811-2.139 0-3.965 1.62-4.32 3.891-.185 1.133.078 2.217.72 2.973.59.694 1.434.984 2.438.984 1.722 0 2.678-1.108 2.678-1.108l-.087.538a.337.337 0 0 0 .333.39h1.742a.561.561 0 0 0 .555-.475l1.046-6.622a.336.336 0 0 0-.331-.39zm-11.613.047c-.22 1.45-1.328 1.45-2.4 1.45h-.61l.429-2.708a.337.337 0 0 1 .332-.285h.28c.73 0 1.418 0 1.773.416.212.249.277.617.196 1.127zm-4.506-3.785c-.277 0-.512.201-.555.474L9.03 30.047a.337.337 0 0 0 .333.39h1.929a.561.561 0 0 0 .555-.475l.44-2.795a.561.561 0 0 1 .555-.474h1.279c2.661 0 4.198-1.288 4.599-3.84.18-1.117.007-1.995-.515-2.61-.575-.674-1.593-1.03-2.946-1.03z"/></g><g><path fill="#fff" d="M58.44 19.497l-1.66 10.55a.336.336 0 0 0 .333.39h1.667a.56.56 0 0 0 .555-.475l1.635-10.36a.337.337 0 0 0-.332-.39h-1.867a.337.337 0 0 0-.332.285zm-4.98 7.219c-.185 1.105-1.063 1.847-2.182 1.847-.56 0-1.011-.18-1.3-.521-.285-.34-.393-.822-.303-1.36.175-1.096 1.066-1.862 2.168-1.862.55 0 .996.182 1.29.527.297.348.414.834.328 1.369zm2.698-3.766h-1.934a.335.335 0 0 0-.332.284l-.086.541-.135-.196c-.42-.608-1.353-.811-2.285-.811-2.138 0-3.964 1.62-4.32 3.891-.184 1.133.078 2.217.72 2.973.591.694 1.434.984 2.438.984 1.723 0 2.678-1.108 2.678-1.108l-.086.538a.337.337 0 0 0 .333.39h1.742a.561.561 0 0 0 .554-.475l1.047-6.622a.337.337 0 0 0-.334-.39zm-11.612.047c-.22 1.45-1.328 1.45-2.4 1.45h-.609l.429-2.708a.336.336 0 0 1 .332-.285h.28c.728 0 1.417 0 1.773.416.212.249.276.617.195 1.127zm-4.507-3.785a.561.561 0 0 0-.554.474L37.85 30.047a.336.336 0 0 0 .332.39h2.074a.393.393 0 0 0 .387-.333l.464-2.937a.561.561 0 0 1 .554-.474h1.279c2.662 0 4.197-1.288 4.6-3.84.18-1.117.006-1.995-.517-2.61-.573-.674-1.591-1.03-2.944-1.03z"/></g></g></svg>