<svg xmlns="http://www.w3.org/2000/svg" width="70" height="52" viewBox="0 0 70 52"><g><g><path fill="#635bfc" d="M10.5 52c-5.523 0-10-4.477-10-10V10c0-5.523 4.477-10 10-10h49c5.523 0 10 4.477 10 10v32c0 5.523-4.477 10-10 10z"/></g><g><path fill="#fff" d="M13.135 24.4c0 .458.306.61 1.025.938l.436.196c1.024.458 2.44 1.199 2.44 3.379 0 3.487-2.593 3.923-4.446 3.923-1.199 0-2.463-.283-3.313-.545v-2.986c.741.196 2.027.501 2.594.501.632 0 1.112-.087 1.112-.654 0-.436-.306-.632-.981-.937l-.524-.24c-.98-.457-2.375-1.242-2.375-3.356 0-3.096 2.419-3.771 4.446-3.771 1.526 0 2.529.348 3.052.545v2.899c-.61-.196-1.853-.458-2.594-.458-.501 0-.872.13-.872.566zm10.704 5.297c.262 0 1.177-.13 1.482-.174v2.942c-.632.153-2.027.37-2.942.37-1.178 0-3.379-.13-3.379-3.334v-5.798h-1.526v-2.638H19l.523-2.615 3.619-.872v3.487h2.18l-.545 2.638h-1.635v5.057c0 .785.24.937.697.937zm7.87-5.384c-.654 0-1.156.262-1.374.393v7.912h-4.141V21.065h3.291l.61 1.112c.24-.72.894-1.33 1.854-1.33.653 0 1.09.131 1.285.24v3.444a6.129 6.129 0 0 0-1.525-.218zm2.507 8.305V21.065h4.142v11.553zm2.071-12.97c-1.155 0-2.049-.937-2.049-2.07 0-1.134.894-2.071 2.05-2.071 1.155 0 2.048.937 2.048 2.07 0 1.134-.893 2.072-2.049 2.072zm9.417 13.188c-.523 0-1.068-.153-1.46-.24v4.163h-4.142V21.065h3.357l.61.72a3.746 3.746 0 0 1 2.464-.938c1.7 0 3.705.48 3.705 5.93 0 5.972-3.008 6.059-4.534 6.059zm-.48-8.937c-.239 0-.718.196-.98.349v5.58c.196.065.545.109.698.109.72 0 1.155-.61 1.155-3.16 0-2.595-.197-2.878-.872-2.878zm10.226 4.316c0 1.242.61 1.482 1.634 1.482 1.177 0 2.768-.349 3.379-.458v3.008c-.48.175-1.94.589-3.379.589-2.594 0-5.755-.414-5.755-5.95 0-4.883 2.485-6.039 5.101-6.039 2.681 0 4.621 1.374 4.621 5.995v1.373H55.45zm.98-4.904c-1.046 0-.937 1.286-.98 2.659h1.743c0-1.548 0-2.66-.763-2.66z"/></g></g></svg>