<svg xmlns="http://www.w3.org/2000/svg" width="70" height="52" viewBox="0 0 70 52"><g><g><path fill="#8050b5" d="M10.5 52c-5.523 0-10-4.477-10-10V10c0-5.523 4.477-10 10-10h49c5.523 0 10 4.477 10 10v32c0 5.523-4.477 10-10 10z"/></g><g><path fill="#fff" d="M37.415 29.163c.33 0 .69-.17 1.07-.505.574-.502.96-1.24 1.179-2.255.085-.391.122-.77.108-1.128 0-.443-.097-.923-.279-1.385-.227-.579-.534-.912-.914-.99a1.141 1.141 0 0 0-.214-.02c-.49 0-.959.324-1.396.964a4.903 4.903 0 0 0-.822 1.813 5.252 5.252 0 0 0-.108 1.112c0 .45.094.917.279 1.386.226.579.533.912.914.99a.93.93 0 0 0 .183.018zm9.71 0c.33 0 .69-.17 1.07-.505.574-.503.959-1.24 1.178-2.255.073-.33.108-.7.108-1.128 0-.448-.093-.914-.278-1.385-.227-.579-.534-.912-.914-.99a1.143 1.143 0 0 0-.214-.02c-.49 0-.96.324-1.397.964a4.916 4.916 0 0 0-.82 1.813c-.072.327-.109.7-.109 1.112 0 .45.094.917.279 1.386.226.579.533.912.914.99a.93.93 0 0 0 .183.018zm-8.809-8.837c.262 0 .544.03.836.09 1.097.232 1.93.827 2.477 1.768.5.83.743 1.81.743 3a8.117 8.117 0 0 1-1.206 4.311c-.463.759-1.003 1.336-1.605 1.714a3.758 3.758 0 0 1-2.035.572c-.264 0-.545-.032-.836-.093-1.11-.23-1.921-.807-2.478-1.766-.494-.835-.743-1.85-.743-3.016 0-1.563.406-3.008 1.207-4.296.47-.758 1.015-1.335 1.617-1.713a3.738 3.738 0 0 1 2.023-.571zm9.694 0c.262 0 .544.03.836.09 1.11.231 1.921.81 2.478 1.768.508.842.758 1.852.743 3a8.117 8.117 0 0 1-1.207 4.311c-.463.758-1.003 1.336-1.605 1.714a3.758 3.758 0 0 1-2.035.572 4.08 4.08 0 0 1-.836-.093c-1.11-.23-1.921-.807-2.478-1.766-.493-.835-.743-1.85-.743-3.016 0-1.563.406-3.008 1.208-4.296.47-.758 1.014-1.335 1.616-1.713a3.738 3.738 0 0 1 2.023-.571zM26.003 26.39a281.186 281.186 0 0 0-2.229 4.385c-.922 1.738-1.687 2.605-2.338 2.65a.573.573 0 0 1-.05.003c-.395 0-.733-.345-1.034-1.054-.786-1.985-1.646-5.875-2.555-11.562-.061-.386.024-.738.247-1.02.215-.287.534-.441.976-.471a1.92 1.92 0 0 1 .166-.007c.684 0 1.082.371 1.182 1.102.47 3.117.995 5.838 1.563 8.089l3.391-6.351c.31-.578.701-.885 1.163-.914.033-.003.065-.004.097-.004.626 0 1.009.42 1.172 1.283.376 1.964.87 3.717 1.471 5.209.4-3.846 1.089-6.665 2.045-8.378.228-.42.563-.639 1.022-.67a1.38 1.38 0 0 1 .975.305c.293.227.45.512.48.868a1.29 1.29 0 0 1-.155.731c-.6 1.092-1.092 2.89-1.502 5.5-.381 2.449-.527 4.4-.434 5.803.032.379-.031.716-.186 1.005-.184.334-.46.518-.82.548h-.012c-.023.002-.05.004-.077.004-.383 0-.765-.191-1.134-.567-1.44-1.447-2.591-3.629-3.422-6.487v-.002zm14.822 12.523L39.3 35.238h11.12c1.959 0 3.551-1.567 3.551-3.493V20.102c0-1.927-1.592-3.494-3.55-3.494H19.41c-.948 0-1.84.366-2.51 1.031a3.406 3.406 0 0 0-1.025 2.463v11.643c0 1.926 1.593 3.493 3.551 3.493h14.687l6.71 3.676.003.001z"/></g></g></svg>