<svg xmlns="http://www.w3.org/2000/svg" width="15" height="9" viewBox="0 0 15 9">
    <g fill="none" fill-rule="evenodd" opacity=".4">
        <g fill="#00013C">
            <g>
                <path d="M.098 6.915C.033 6.855 0 6.775 0 6.675c0-.1.033-.191.098-.271L6.973.12C7.04.04 7.126 0 7.235 0c.11 0 .197.04.262.12l6.875 6.284c.066.08.099.17.099.27s-.033.18-.099.24l-.654.602c-.066.08-.153.12-.262.12-.11 0-.208-.04-.295-.12L7.235 2.074 1.31 7.516c-.088.08-.186.12-.295.12-.11 0-.197-.04-.262-.12l-.655-.601z" transform="translate(-260 -547) matrix(0 -1 -1 0 275.012 555.947) matrix(0 -1 -1 0 7.818 14.47)"/>
            </g>
        </g>
    </g>
</svg>
