<svg xmlns="http://www.w3.org/2000/svg" xmlns:xlink="http://www.w3.org/1999/xlink" width="28" height="28" viewBox="0 0 28 28">
    <defs>
        <path id="s03impttsa" d="M14 0C6.268 0 0 6.268 0 14s6.268 14 14 14 14-6.268 14-14S21.732 0 14 0z"/>
    </defs>
    <g fill="none" fill-rule="evenodd">
        <g>
            <g>
                <g>
                    <g transform="translate(-1308 -296) translate(964 96) translate(186 200) translate(158)">
                        <mask id="tuks79wx6b" fill="#fff">
                            <use xlink:href="#s03impttsa"/>
                        </mask>
                        <use fill="#F6AE28" fill-rule="nonzero" xlink:href="#s03impttsa"/>
                        <g mask="url(#tuks79wx6b)">
                            <g>
                                <path d="M0 0.306L24 0.306 24 24.306 0 24.306z" transform="translate(2.7 1.95)"/>
                                <path fill="#FFF" d="M9.905 13.906c3.72 0 6.735 3.015 6.735 6.735-2.512.832-4.604 1.248-6.276 1.248-1.672 0-4.07-.416-7.195-1.248 0-3.72 3.016-6.735 6.736-6.735zm0-.842c-2.791 0-5.052-2.26-5.052-5.052 0-2.79 2.26-5.051 5.052-5.051 2.79 0 5.051 2.26 5.051 5.051 0 2.791-2.26 5.052-5.051 5.052zm6.199 1.88c2.641.679 4.549 2.976 4.731 5.697h-2.511c0-2.197-.842-4.198-2.22-5.697zM14.4 13.028c1.427-1.277 2.241-3.101 2.24-5.016 0-1.15-.293-2.282-.856-3.286 1.967.395 3.381 2.123 3.38 4.128.001 1.214-.522 2.368-1.435 3.168-.913.8-2.127 1.166-3.33 1.006z" transform="translate(2.7 1.95)"/>
                            </g>
                        </g>
                    </g>
                </g>
            </g>
        </g>
    </g>
</svg>
