<svg xmlns="http://www.w3.org/2000/svg" width="9.625" height="11" viewBox="0 0 9.625 11">
  <path id="Path_128" data-name="Path 128" d="M6.757-4.931a2.65,2.65,0,0,1-1.944.806,2.65,2.65,0,0,1-1.944-.806,2.65,2.65,0,0,1-.806-1.944,2.65,2.65,0,0,1,.806-1.944,2.65,2.65,0,0,1,1.944-.806,2.65,2.65,0,0,1,1.944.806,2.65,2.65,0,0,1,.806,1.944A2.65,2.65,0,0,1,6.757-4.931Zm.118,1.515a2.752,2.752,0,0,1,1.944.881A2.757,2.757,0,0,1,9.625-.559v.9a1,1,0,0,1-.3.73,1,1,0,0,1-.73.3H1.031a1,1,0,0,1-.73-.3A1,1,0,0,1,0,.344v-.9A2.757,2.757,0,0,1,.806-2.535,2.752,2.752,0,0,1,2.75-3.416L3.781.688l.688-2.922-.687-1.2H5.844l-.687,1.2L5.844.688Z" transform="translate(0 9.625)" fill="#ee593d"/>
</svg>
